<svg xmlns="http://www.w3.org/2000/svg" width="118" height="72.411" viewBox="0 0 118 72.411"><g transform="translate(1 0.503)" opacity="0.6"><text transform="translate(55.5 69.908)" fill="#a0abc9" font-size="7" font-family="Raleway-Italic, Raleway" font-style="italic" letter-spacing="0.992em"><tspan x="-54.064" y="0">SPORTSWEAR</tspan></text><text transform="translate(58 57.408)" fill="#a0abc9" font-size="17" font-family="Raleway-BoldItalic, Raleway" font-weight="700" font-style="italic" letter-spacing="0.298em"><tspan x="-58.488" y="0">FASTLANE</tspan></text><g transform="translate(46.675 0)"><path d="M179.3,151.545a16.2,16.2,0,0,0-5.344,25.384Z" transform="translate(-169.925 -150.002)" fill="#a0abc9" stroke="#a0abc9" stroke-width="1"/><path d="M182.821,182.137a16.352,16.352,0,0,0,3.246.35l6.557-31.146A16.366,16.366,0,0,0,186.267,150l-6.557,31.146A16.336,16.336,0,0,0,182.821,182.137Z" transform="translate(-169.925 -150.002)" fill="#a0abc9" stroke="#a0abc9" stroke-width="1"/><path d="M193.03,180.944a16.2,16.2,0,0,0,5.344-25.384Z" transform="translate(-169.925 -150.002)" fill="#a0abc9" stroke="#a0abc9" stroke-width="1"/></g></g></svg>